<?xml version="1.0" standalone="no"?>
<!DOCTYPE svg PUBLIC "-//W3C//DTD SVG 20010904//EN"
 "http://www.w3.org/TR/2001/REC-SVG-20010904/DTD/svg10.dtd">
<svg version="1.0" xmlns="http://www.w3.org/2000/svg"
 width="300.000000pt" height="300.000000pt" viewBox="0 0 300.000000 300.000000"
 preserveAspectRatio="xMidYMid meet">
<metadata>
Created by potrace 1.11, written by Peter Selinger 2001-2013
</metadata>
<g transform="translate(0.000000,300.000000) scale(0.100000,-0.100000)"
fill="#000000" stroke="none">
<path d="M1349 2996 c-2 -2 -30 -7 -63 -11 -139 -15 -359 -88 -496 -162 -217
-118 -399 -285 -538 -492 -100 -151 -197 -376 -218 -509 -3 -20 -8 -40 -10
-43 -10 -18 -19 -142 -18 -284 0 -146 4 -203 19 -275 3 -14 8 -38 11 -55 9
-55 71 -229 110 -310 143 -302 403 -564 706 -708 86 -42 263 -103 323 -113 22
-3 42 -7 45 -9 42 -26 475 -26 559 -1 9 3 31 8 48 11 52 9 187 53 275 91 376
161 692 507 821 899 23 70 32 103 53 200 14 66 18 129 18 285 0 96 -4 191 -8
210 -4 19 -14 68 -22 108 -31 151 -125 371 -215 503 -184 271 -443 473 -746
582 -74 27 -207 61 -278 73 -45 6 -370 15 -376 10z m337 -68 c5 -3 32 -9 59
-12 120 -16 373 -105 447 -157 14 -10 29 -19 33 -19 4 0 30 -16 56 -35 27 -19
52 -35 55 -35 20 0 209 -179 276 -260 130 -159 232 -360 282 -557 14 -56 19
-81 36 -203 12 -84 4 -294 -14 -398 -33 -183 -109 -375 -213 -537 -135 -209
-345 -395 -573 -506 -90 -44 -264 -105 -325 -114 -22 -3 -46 -8 -54 -11 -30
-10 -163 -19 -281 -18 -116 1 -185 9 -322 39 -63 14 -214 71 -295 113 -173 88
-357 236 -468 377 -22 28 -42 52 -45 55 -15 14 -93 145 -128 215 -68 135 -118
298 -140 455 -8 59 -7 292 1 350 3 25 9 63 12 85 16 109 82 303 143 414 146
270 367 485 633 618 94 46 270 109 334 118 22 3 45 8 52 10 6 2 38 7 70 11 32
3 59 7 61 9 5 5 299 -2 308 -7z"/>
<path d="M1539 2338 c0 -13 -2 -80 -2 -151 l-2 -127 -60 -39 c-33 -22 -64 -44
-70 -48 -5 -5 -34 -24 -63 -42 -64 -41 -84 -59 -77 -72 12 -18 34 -8 127 54
51 34 104 69 118 78 l26 17 0 -399 0 -399 -35 -1 c-20 0 -50 -2 -66 -3 -28 -3
-30 -1 -31 28 -1 30 -12 178 -20 281 -2 28 -7 88 -10 135 -6 101 -7 111 -17
127 -8 12 -524 16 -532 4 -3 -6 -7 -48 -20 -236 -3 -38 -7 -95 -10 -125 -2
-30 -6 -93 -10 -139 -3 -46 -7 -86 -9 -90 -2 -3 0 -16 5 -28 7 -19 16 -23 54
-23 l45 0 0 -104 c0 -58 -5 -117 -10 -132 -16 -41 -20 -93 -9 -100 6 -3 310
-6 676 -6 535 0 667 3 674 13 4 7 6 16 4 19 -2 4 -7 22 -10 41 -8 47 -47 109
-94 152 -23 20 -41 38 -41 40 0 1 26 4 57 5 99 3 96 -8 96 329 -1 289 -5 331
-36 335 -7 0 -16 2 -22 3 -5 2 -29 3 -52 4 -35 1 -42 5 -45 23 -3 20 -9 23
-58 24 -69 0 -80 -3 -80 -27 0 -16 -8 -19 -54 -19 -38 0 -61 -6 -77 -19 l-23
-19 -1 -257 0 -257 -55 7 c-30 3 -72 8 -93 10 -22 2 -41 5 -43 7 -3 3 -6 483
-4 750 l0 48 120 -81 c110 -75 150 -90 150 -59 0 5 -61 50 -135 100 l-135 90
0 150 c0 143 -1 150 -20 150 -14 0 -20 -7 -21 -22z m-562 -601 c6 -4 10 -15 8
-25 -2 -9 -4 -30 -4 -47 -1 -30 -1 -30 -58 -28 -32 0 -61 1 -64 2 -3 1 -5 11
-3 24 1 12 3 34 3 49 1 17 7 28 19 30 28 6 86 3 99 -5z m183 -27 c3 -19 4 -44
2 -55 -3 -21 -13 -22 -123 -16 -13 1 -17 11 -15 47 1 25 7 49 14 53 7 4 36 7
65 7 52 -1 52 -1 57 -36z m161 30 c6 -24 6 -100 1 -101 -10 -1 -95 -1 -107 0
-5 1 -10 25 -11 54 l-1 52 59 0 c32 0 59 -2 59 -5z m856 -53 c8 -14 8 -565 0
-574 -4 -3 -46 -6 -94 -5 -75 0 -99 5 -162 31 -41 17 -79 31 -86 31 -7 0 -15
6 -17 13 -7 20 -3 491 4 503 9 14 346 15 355 1z m-1201 -144 c1 -57 3 -55 -66
-55 -72 -1 -70 -2 -64 45 8 63 7 63 70 62 l59 0 1 -52z m191 -1 c2 -36 -1 -52
-10 -53 -6 0 -40 -2 -74 -3 l-63 -1 0 51 c0 28 2 53 5 55 2 3 35 5 72 4 l68
-1 2 -52z m164 49 c3 -1 7 -25 8 -53 l2 -53 -56 1 c-30 1 -59 2 -65 3 -5 1
-10 25 -10 54 l0 53 58 -2 c31 -1 60 -2 63 -3z m-366 -150 c13 -1 6 -94 -7
-102 -7 -5 -74 -4 -121 0 -7 1 0 88 8 101 3 4 83 5 120 1z m199 -2 c4 -4 9
-74 7 -95 -1 -6 -31 -10 -78 -9 l-78 1 0 44 c-1 25 0 50 2 55 3 9 139 13 147
4z m178 2 c10 -2 14 -101 3 -104 -5 -2 -37 -3 -69 -2 l-59 1 -3 51 c-2 42 1
53 14 55 14 3 90 2 114 -1z m-377 -202 l0 -53 -70 -1 -70 0 2 40 c0 22 1 47 2
55 1 12 15 15 68 14 l68 -1 0 -54z m188 52 c21 -1 23 -6 22 -53 l0 -53 -82 0
-83 -1 0 52 c0 52 0 53 33 56 29 3 47 3 110 -1z m203 -3 c3 -4 6 -49 5 -74 -1
-11 -7 -21 -13 -22 -7 -1 -38 -3 -70 -5 l-56 -4 -4 44 c-4 51 0 59 27 64 20 4
106 1 111 -3z m334 -132 c243 -37 448 -163 472 -287 l5 -26 -634 0 c-534 0
-633 2 -633 14 0 21 37 88 62 115 84 89 259 165 418 184 30 3 56 7 57 8 5 5
214 -2 253 -8z m-607 -45 c-32 -16 -81 -46 -109 -68 l-51 -41 0 69 0 68 41 3
c23 2 72 1 109 0 l68 -4 -58 -27z"/>
<path d="M1989 1608 c-1 -7 -1 -17 0 -21 1 -4 -13 -13 -29 -19 -21 -7 -29 -15
-26 -25 3 -8 6 -17 6 -19 0 -2 9 -4 19 -4 12 0 21 -9 25 -25 4 -14 12 -25 20
-25 17 0 38 24 30 33 -4 4 5 11 20 17 33 12 32 43 -2 48 -14 2 -22 9 -19 17 6
15 -11 35 -30 35 -7 0 -14 -6 -14 -12z"/>
<path d="M1940 1236 c-12 -12 -13 -45 -2 -47 4 -1 35 -2 70 -4 50 -1 65 2 72
15 16 29 -5 42 -69 44 -34 1 -66 -3 -71 -8z"/>
</g>
</svg>
